<?xml version="1.0" standalone="no"?>
<!DOCTYPE svg PUBLIC "-//W3C//DTD SVG 20010904//EN"
 "http://www.w3.org/TR/2001/REC-SVG-20010904/DTD/svg10.dtd">
<svg version="1.0" xmlns="http://www.w3.org/2000/svg"
 width="3093.000000pt" height="2767.000000pt" viewBox="0 0 3093.000000 2767.000000"
 preserveAspectRatio="xMidYMid meet">

<g transform="translate(0.000000,2767.000000) scale(0.100000,-0.100000)"
fill="#000000" stroke="none">
<path d="M13090 4310 c-227 -36 -442 -195 -543 -402 -61 -125 -80 -207 -80
-343 0 -136 20 -221 75 -335 35 -70 59 -102 138 -180 105 -105 172 -149 281
-186 273 -93 576 -31 777 159 155 147 232 329 232 549 0 137 -20 223 -76 338
-40 80 -62 109 -138 185 -102 102 -197 158 -326 195 -86 23 -255 34 -340 20z
m274 -150 c205 -52 365 -199 432 -395 24 -69 27 -96 28 -195 0 -102 -3 -124
-30 -200 -37 -106 -88 -184 -166 -254 -184 -167 -470 -204 -691 -89 -102 53
-212 164 -261 263 -152 312 -28 679 281 829 128 63 268 77 407 41z"/>
<path d="M3630 3570 l0 -720 70 0 70 0 0 720 0 720 -70 0 -70 0 0 -720z"/>
<path d="M6040 4278 c0 -14 -186 -1340 -195 -1395 l-6 -33 69 0 69 0 21 153
c11 83 42 315 69 514 26 200 50 363 53 363 3 0 119 -232 259 -515 184 -372
259 -515 271 -515 12 0 52 72 138 248 66 136 180 368 252 516 72 147 133 266
136 264 2 -2 33 -220 69 -484 36 -263 68 -494 71 -511 l6 -33 68 0 69 0 -5 33
c-3 17 -49 340 -102 717 -78 546 -100 685 -112 688 -11 2 -96 -163 -299 -583
-156 -322 -287 -585 -290 -585 -3 0 -136 262 -294 583 -254 515 -317 629 -317
575z"/>
<path d="M9530 3570 l0 -720 75 0 75 0 0 333 0 334 198 6 c108 4 220 12 247
17 125 25 245 118 280 218 29 82 31 189 6 273 -20 63 -31 81 -84 134 -105 105
-195 124 -584 125 l-213 0 0 -720z m612 553 c90 -41 138 -117 138 -218 0 -101
-49 -176 -140 -219 -40 -19 -67 -21 -252 -24 l-208 -4 0 247 0 247 208 -4
c186 -3 212 -6 254 -25z"/>
<path d="M16070 3570 l0 -720 75 0 75 0 0 335 0 335 39 0 40 0 258 -335 258
-335 88 0 89 0 -30 38 c-16 20 -132 170 -257 332 l-227 295 93 11 c121 15 142
20 212 57 69 36 120 91 156 166 22 49 26 69 26 156 0 93 -2 105 -33 167 -40
82 -111 149 -189 178 -75 28 -206 39 -460 40 l-213 0 0 -720z m610 554 c91
-42 140 -118 140 -219 0 -71 -23 -126 -71 -172 -64 -61 -92 -67 -321 -71
l-208 -4 0 247 0 247 208 -4 c183 -3 212 -6 252 -24z"/>
<path d="M18930 4220 l0 -70 160 0 160 0 0 -650 0 -650 75 0 75 0 0 650 0 650
160 0 160 0 0 70 0 70 -395 0 -395 0 0 -70z"/>
</g>
</svg>
