<?xml version="1.0" standalone="no"?>
<!DOCTYPE svg PUBLIC "-//W3C//DTD SVG 20010904//EN"
 "http://www.w3.org/TR/2001/REC-SVG-20010904/DTD/svg10.dtd">
<svg version="1.0" xmlns="http://www.w3.org/2000/svg"
 width="3093.000000pt" height="2767.000000pt" viewBox="0 0 3093.000000 2767.000000"
 preserveAspectRatio="xMidYMid meet">

<g transform="translate(0.000000,2767.000000) scale(0.100000,-0.100000)"
fill="#000000" stroke="none">
<path d="M11107 17612 c-3183 -5533 -5787 -10063 -5787 -10066 0 -3 974 -6
2164 -6 l2164 0 4727 8146 c2708 4668 4725 8154 4722 8163 -4 16 -2183 3798
-2197 3814 -4 4 -2611 -4519 -5793 -10051z"/>
<path d="M18226 18284 c-593 -1037 -1079 -1890 -1080 -1897 0 -7 2125 -3697
4724 -8199 l4725 -8187 2168 -1 c1193 0 2166 3 2164 7 -166 293 -11603 20142
-11611 20150 -8 9 -279 -457 -1090 -1873z"/>
<path d="M15535 13569 c-230 -398 -426 -735 -436 -749 -12 -18 -40 -33 -91
-49 -614 -195 -1162 -585 -1554 -1108 -331 -440 -534 -949 -606 -1523 -8 -62
-13 -206 -13 -355 0 -265 13 -402 58 -621 l23 -109 -438 -755 -438 -755 874
-5 874 -5 96 -84 c226 -197 419 -328 675 -456 777 -390 1692 -436 2506 -128
358 136 689 338 977 595 l87 78 870 0 c479 0 871 2 871 5 0 3 -196 343 -436
756 l-436 751 26 137 c46 246 51 302 51 611 -1 319 -11 422 -70 685 -34 153
-128 437 -195 584 -289 647 -816 1198 -1449 1515 -145 73 -212 101 -386 161
l-150 52 -420 726 c-232 399 -428 735 -436 747 -14 21 -35 -13 -434 -701z"/>
<path d="M1078 3587 l-1076 -1872 5815 -3 c3198 -1 8428 -1 11622 0 l5807 3
-1077 1870 -1077 1870 -9468 2 -9469 2 -1077 -1872z m12347 749 c190 -52 385
-207 470 -376 113 -223 106 -519 -17 -728 -51 -87 -209 -240 -293 -284 -129
-67 -201 -83 -365 -83 -124 0 -156 3 -220 23 -208 65 -369 201 -465 393 -55
108 -69 176 -69 329 0 126 2 141 32 228 93 271 283 445 557 508 78 18 288 12
370 -10z m-9655 -726 l0 -720 -75 0 -75 0 0 720 0 720 75 0 75 0 0 -720z
m2590 133 c160 -322 292 -584 293 -582 2 2 131 266 287 587 209 429 287 582
300 582 15 0 29 -86 114 -687 53 -379 100 -703 103 -721 l5 -33 -73 3 -73 3
-67 490 c-37 270 -69 501 -71 514 -2 18 -77 -127 -254 -490 -204 -416 -256
-515 -273 -517 -19 -3 -50 55 -273 508 -186 378 -254 507 -260 493 -4 -10 -34
-225 -68 -478 -33 -253 -63 -475 -66 -492 l-6 -33 -69 0 c-38 0 -69 4 -69 9 0
12 189 1354 196 1399 4 18 12 32 20 32 9 0 125 -224 304 -587z m3729 577 c144
-19 256 -95 310 -209 23 -50 26 -68 26 -166 0 -98 -3 -116 -26 -165 -30 -63
-81 -119 -142 -154 -77 -46 -146 -57 -369 -63 l-208 -6 0 -333 0 -334 -75 0
-75 0 0 720 0 720 243 0 c133 0 276 -5 316 -10z m6545 0 c99 -15 176 -52 236
-116 79 -84 95 -127 95 -259 -1 -128 -17 -175 -86 -250 -75 -82 -168 -120
-318 -133 l-80 -7 235 -305 c130 -168 245 -317 256 -332 l19 -28 -89 0 -90 0
-258 335 -258 335 -38 0 -38 0 0 -335 0 -335 -75 0 -75 0 0 720 0 720 248 0
c136 0 278 -5 316 -10z m3086 -60 l0 -70 -160 0 -160 0 0 -650 0 -650 -75 0
-75 0 0 650 0 650 -160 0 -160 0 0 70 0 70 395 0 395 0 0 -70z"/>
<path d="M13112 4209 c-135 -24 -291 -119 -371 -225 -86 -116 -125 -233 -125
-379 0 -146 33 -249 117 -362 218 -294 659 -323 919 -61 113 114 168 254 168
428 0 178 -50 301 -169 421 -84 84 -140 119 -249 155 -84 28 -207 38 -290 23z"/>
<path d="M9680 3945 l0 -247 203 5 c132 3 216 9 242 18 54 18 127 93 143 145
38 128 -27 263 -146 303 -22 8 -118 15 -239 18 l-203 6 0 -248z"/>
<path d="M16220 3946 l0 -246 163 0 c221 0 302 16 365 74 37 33 64 94 69 156
10 102 -58 207 -154 239 -23 8 -117 15 -240 18 l-203 6 0 -247z"/>
<path d="M1632 895 c-132 -41 -207 -167 -173 -293 25 -91 100 -141 280 -187
188 -47 231 -77 231 -162 0 -57 -22 -95 -74 -125 -35 -19 -55 -23 -131 -23
-77 0 -99 4 -150 28 -33 15 -78 42 -99 59 l-39 31 -28 -34 c-16 -19 -27 -38
-25 -44 5 -19 121 -91 176 -109 81 -27 225 -33 294 -11 130 41 206 166 176
287 -25 98 -98 149 -282 197 -188 49 -231 80 -231 167 0 52 23 89 74 119 27
16 52 20 115 20 74 0 87 -4 160 -40 43 -22 82 -41 85 -43 3 -1 18 14 34 33 26
35 26 37 9 51 -35 27 -119 67 -169 80 -63 17 -177 17 -233 -1z"/>
<path d="M5330 850 l0 -50 145 0 145 0 0 -390 0 -390 55 0 55 0 0 390 0 389
143 3 142 3 3 48 3 47 -345 0 -346 0 0 -50z"/>
<path d="M9292 593 c4 -293 5 -311 27 -366 35 -89 77 -137 155 -177 67 -34 72
-35 185 -35 101 0 123 3 169 24 79 36 146 115 174 204 22 68 23 89 23 362 l0
290 -52 3 -53 3 0 -289 c0 -321 -6 -364 -62 -428 -52 -59 -100 -78 -198 -78
-94 0 -142 18 -191 71 -63 67 -64 70 -69 408 l-5 310 -53 3 -54 3 4 -308z"/>
<path d="M13390 461 l0 -441 183 0 c197 0 272 12 355 54 153 78 240 233 230
409 -11 187 -114 323 -293 388 -53 19 -86 23 -267 27 l-208 4 0 -441z m471
308 c72 -34 124 -87 160 -163 25 -52 29 -73 29 -143 0 -146 -53 -239 -172
-304 l-63 -34 -162 -3 -163 -4 0 342 0 342 158 -4 c145 -3 161 -5 213 -29z"/>
<path d="M17480 460 l0 -440 50 0 50 0 0 440 0 440 -50 0 -50 0 0 -440z"/>
<path d="M21260 884 c-164 -44 -293 -191 -322 -367 -21 -129 22 -265 114 -363
84 -90 150 -124 272 -144 134 -21 292 34 384 135 128 140 157 328 75 502 -30
65 -111 155 -170 190 -103 60 -237 78 -353 47z m254 -93 c63 -28 137 -100 172
-168 27 -53 29 -67 29 -163 0 -88 -4 -113 -23 -154 -34 -75 -84 -129 -154
-166 -58 -32 -70 -35 -153 -35 -108 0 -158 19 -233 89 -121 113 -147 323 -58
465 27 43 93 104 135 126 77 39 204 42 285 6z"/>
</g>
</svg>
